<?xml version="1.0" standalone="no"?>
<!DOCTYPE svg PUBLIC "-//W3C//DTD SVG 20010904//EN"
 "http://www.w3.org/TR/2001/REC-SVG-20010904/DTD/svg10.dtd">
<svg version="1.0" xmlns="http://www.w3.org/2000/svg"
 width="1024.000000pt" height="1024.000000pt" viewBox="0 0 1024.000000 1024.000000"
 preserveAspectRatio="xMidYMid meet">

<g transform="translate(0.000000,1024.000000) scale(0.100000,-0.100000)"
fill="#000000" stroke="none">
<path d="M3362 8734 c-189 -34 -431 -137 -595 -255 -335 -239 -572 -694 -602
-1154 -10 -150 10 -439 39 -575 69 -321 236 -735 452 -1117 137 -243 203 -408
243 -608 34 -171 41 -282 41 -657 0 -387 14 -825 29 -948 6 -41 13 -102 16
-135 8 -74 43 -294 57 -355 5 -25 12 -56 14 -70 12 -63 77 -300 114 -411 82
-246 248 -542 401 -714 152 -171 318 -262 459 -253 157 11 220 92 270 343 16
79 22 170 30 435 20 668 27 795 55 945 52 282 153 620 236 784 77 156 205 278
349 335 67 27 193 32 264 12 176 -51 344 -219 426 -426 72 -179 167 -505 200
-683 34 -189 36 -220 49 -762 13 -529 28 -673 88 -821 70 -177 260 -214 468
-92 141 83 327 301 458 538 149 271 275 710 332 1160 34 273 37 338 45 915 4
345 13 640 19 695 33 261 107 483 246 735 206 374 341 685 431 997 57 201 75
332 77 582 2 195 -1 235 -21 336 -57 287 -166 530 -330 740 -150 191 -427 371
-688 448 -140 42 -268 56 -438 49 -237 -10 -332 -34 -729 -183 -477 -179 -599
-214 -754 -214 -140 0 -246 30 -689 196 -347 130 -464 166 -611 188 -112 17
-356 17 -451 0z"/>
</g>
</svg>
